<svg xmlns="http://www.w3.org/2000/svg" width="48" height="48" viewBox="0 0 48 48" fill="none">
<path d="M4 40H8M8 40H24M8 40V14.4004C8 12.1602 8 11.0392 8.43597 10.1836C8.81947 9.43095 9.43095 8.81947 10.1836 8.43597C11.0392 8 12.1602 8 14.4004 8H17.6004C19.8406 8 20.9601 8 21.8158 8.43597C22.5684 8.81947 23.181 9.43095 23.5645 10.1836C24 11.0384 24 12.158 24 14.3938V20.4922M24 40H40M24 40V20.4922M40 40H44M40 40V28.7363C40 27.6859 40 27.1599 39.874 26.6699C39.7624 26.2356 39.5778 25.8237 39.3294 25.4504C39.049 25.0291 38.659 24.6776 37.8773 23.9754L33.2773 19.8428C31.7653 18.4844 31.009 17.8055 30.1543 17.5479C29.4014 17.3209 28.5981 17.3209 27.8452 17.5479C26.9906 17.8055 26.2345 18.4847 24.7228 19.8428L24 20.4922" stroke="#4045E1" stroke-width="2" stroke-linecap="round" stroke-linejoin="round"/>
</svg>