<svg xmlns="http://www.w3.org/2000/svg" width="48" height="48" viewBox="0 0 48 48" fill="none">
  <path d="M34.4333 38.6646C31.8698 35.8016 28.1453 34 24 34C19.8547 34 16.1298 35.8016 13.5664 38.6646M24 42C14.0589 42 6 33.9411 6 24C6 14.0589 14.0589 6 24 6C33.9411 6 42 14.0589 42 24C42 33.9411 33.9411 42 24 42ZM24 28C20.6863 28 18 25.3137 18 22C18 18.6863 20.6863 16 24 16C27.3137 16 30 18.6863 30 22C30 25.3137 27.3137 28 24 28Z" stroke="#4045E1" stroke-width="2" stroke-linecap="round" stroke-linejoin="round"/>
</svg>