<svg xmlns="http://www.w3.org/2000/svg" width="60" height="60" viewBox="0 0 60 60" fill="none">
  <rect width="60" height="60" fill="white"/>
  <path d="M18.0005 10H20H40H42.0005C44.8008 10 46.1989 10 47.2685 10.545C48.2093 11.0243 48.9762 11.7887 49.4556 12.7295C50 13.798 50 15.1975 50 17.9923V20V42.0089C50 44.8037 50 46.2012 49.4556 47.2697C48.9762 48.2105 48.2093 48.9762 47.2685 49.4556C46.2 50 44.8025 50 42.0077 50H17.9923C15.1975 50 13.798 50 12.7295 49.4556C11.7887 48.9762 11.0243 48.2105 10.545 47.2697C10 46.2001 10 44.8008 10 42.0005V20V18.0005C10 15.2002 10 13.7991 10.545 12.7295C11.0243 11.7887 11.7887 11.0243 12.7295 10.545C13.7991 10 15.2002 10 18.0005 10Z" fill="#EDEEFC"/>
  <path d="M10 20H50M10 20V42.0005C10 44.8008 10 46.2002 10.545 47.2697C11.0243 48.2105 11.7887 48.9762 12.7295 49.4556C13.798 50 15.1975 50 17.9923 50H42.0077C44.8025 50 46.2 50 47.2685 49.4556C48.2093 48.9762 48.9762 48.2105 49.4556 47.2697C50 46.2012 50 44.8037 50 42.0089V20M10 20V18.0005C10 15.2002 10 13.7991 10.545 12.7295C11.0243 11.7887 11.7887 11.0243 12.7295 10.545C13.7991 10 15.2002 10 18.0005 10H20M50 20V17.9923C50 15.1975 50 13.798 49.4556 12.7295C48.9762 11.7887 48.2093 11.0243 47.2685 10.545C46.1989 10 44.8008 10 42.0005 10H40M20 10H40M20 10V5M40 10V5M37.5 30L27.5 40L22.5 35" stroke="#080930" stroke-width="2" stroke-linecap="round" stroke-linejoin="round"/>
</svg>