<svg xmlns="http://www.w3.org/2000/svg" width="60" height="60" viewBox="0 0 60 60" fill="none">
  <rect width="60" height="60" fill="white"/>
  <path d="M7.5 20.5005V39.5005C7.5 42.3008 7.5 43.7001 8.04497 44.7697C8.52433 45.7105 9.28868 46.4762 10.2295 46.9556C11.298 47.5 12.6975 47.5 15.4923 47.5H44.5077C47.3025 47.5 48.7 47.5 49.7685 46.9556C50.7093 46.4762 51.4762 45.7105 51.9556 44.7697C52.5 43.7012 52.5 42.3037 52.5 39.5089V20.4923C52.5 17.6975 52.5 16.298 51.9556 15.2295C51.4762 14.2887 50.7093 13.5243 49.7685 13.045C48.6989 12.5 47.3008 12.5 44.5005 12.5H15.5005C12.7002 12.5 11.2991 12.5 10.2295 13.045C9.28868 13.5243 8.52433 14.2887 8.04497 15.2295C7.5 16.2991 7.5 17.7002 7.5 20.5005Z" fill="#EDEEFC"/>
  <path d="M28.75 37.5C26.6789 37.5 25 35.8211 25 33.75C25 31.6789 26.6789 30 28.75 30M7.5 39.5005V20.5005C7.5 17.7002 7.5 16.2991 8.04497 15.2295C8.52433 14.2887 9.28868 13.5243 10.2295 13.045C11.2991 12.5 12.7002 12.5 15.5005 12.5H44.5005C47.3008 12.5 48.6989 12.5 49.7685 13.045C50.7093 13.5243 51.4762 14.2887 51.9556 15.2295C52.5 16.298 52.5 17.6975 52.5 20.4923V39.5089C52.5 42.3037 52.5 43.7012 51.9556 44.7697C51.4762 45.7105 50.7093 46.4762 49.7685 46.9556C48.7 47.5 47.3025 47.5 44.5077 47.5H15.4923C12.6975 47.5 11.298 47.5 10.2295 46.9556C9.28868 46.4762 8.52433 45.7105 8.04497 44.7697C7.5 43.7001 7.5 42.3008 7.5 39.5005ZM42.5 33.75C42.5 35.8211 40.8211 37.5 38.75 37.5C36.6789 37.5 35 35.8211 35 33.75C35 31.6789 36.6789 30 38.75 30C40.8211 30 42.5 31.6789 42.5 33.75Z" stroke="#080930" stroke-width="2" stroke-linecap="round" stroke-linejoin="round"/>
</svg>