<svg xmlns="http://www.w3.org/2000/svg" width="60" height="60" viewBox="0 0 60 60" fill="none">
  <rect width="60" height="60" fill="white"/>
  <path d="M10 42.0005V18.0005C10 15.2002 10 13.7991 10.545 12.7295C11.0243 11.7887 11.7887 11.0243 12.7295 10.545C13.7991 10 15.2002 10 18.0005 10H20H42.0005C44.8008 10 46.1989 10 47.2685 10.545C48.2093 11.0243 48.9762 11.7887 49.4556 12.7295C50 13.798 50 15.1975 50 17.9923V42.0089C50 44.8037 50 46.2012 49.4556 47.2697C48.9762 48.2105 48.2093 48.9762 47.2685 49.4556C46.2 50 44.8025 50 42.0077 50H20H17.9923C15.1975 50 13.798 50 12.7295 49.4556C11.7887 48.9762 11.0243 48.2105 10.545 47.2697C10 46.2001 10 44.8008 10 42.0005Z" fill="#EDEEFC"/>
  <path d="M20 10H18.0005C15.2002 10 13.7991 10 12.7295 10.545C11.7887 11.0243 11.0243 11.7887 10.545 12.7295C10 13.7991 10 15.2002 10 18.0005V42.0005C10 44.8008 10 46.2001 10.545 47.2697C11.0243 48.2105 11.7887 48.9762 12.7295 49.4556C13.798 50 15.1975 50 17.9923 50H20M20 10H42.0005C44.8008 10 46.1989 10 47.2685 10.545C48.2093 11.0243 48.9762 11.7887 49.4556 12.7295C50 13.798 50 15.1975 50 17.9923V42.0089C50 44.8037 50 46.2012 49.4556 47.2697C48.9762 48.2105 48.2093 48.9762 47.2685 49.4556C46.2 50 44.8025 50 42.0077 50H20M20 10V50M30 27.5H40M30 20H40" stroke="#080930" stroke-width="2" stroke-linecap="round" stroke-linejoin="round"/>
</svg>