<svg xmlns="http://www.w3.org/2000/svg" width="22" height="22" viewBox="0 0 22 22" fill="none">
  <path d="M13.7102 9.0611C13.6111 8.29844 12.7354 7.06622 11.1608 7.06619C9.3312 7.06616 8.56136 8.07946 8.40515 8.58611C8.16145 9.2638 8.21019 10.6571 10.3547 10.809C13.0354 10.999 14.1093 11.3154 13.9727 12.956C13.836 14.5965 12.3417 14.951 11.1608 14.9129C9.9798 14.875 8.04764 14.3325 7.97266 12.8733M10.9734 5.99805V7.06982M10.9734 14.9031V15.998M21 11C21 16.5228 16.5228 21 11 21C5.47715 21 1 16.5228 1 11C1 5.47715 5.47715 1 11 1C16.5228 1 21 5.47715 21 11Z" stroke="#080930" stroke-width="1.5" stroke-linecap="round"/>
</svg>