<svg xmlns="http://www.w3.org/2000/svg" width="20" height="20" viewBox="0 0 20 20" fill="none">
  <path d="M7.80362 3.97037C8.52594 3.80093 9.26297 3.71622 10 3.71622C10.3358 3.71622 10.6081 3.44396 10.6081 3.10811C10.6081 2.77226 10.3358 2.5 10 2.5C9.16977 2.5 8.33954 2.59543 7.52587 2.78629C5.17416 3.33793 3.33793 5.17416 2.78629 7.52587C2.40457 9.1532 2.40457 10.8468 2.78629 12.4741C3.33793 14.8258 5.17416 16.6621 7.52587 17.2137C9.15321 17.5954 10.8468 17.5954 12.4741 17.2137C14.8258 16.6621 16.6621 14.8258 17.2137 12.4741C17.4046 11.6605 17.5 10.8302 17.5 9.99998C17.5 9.66413 17.2277 9.39187 16.8919 9.39187C16.556 9.39187 16.2838 9.66413 16.2838 9.99998C16.2838 10.737 16.1991 11.474 16.0296 12.1964C15.5835 14.0984 14.0984 15.5835 12.1964 16.0296C10.7517 16.3685 9.24827 16.3685 7.80362 16.0296C5.90162 15.5835 4.41652 14.0984 3.97037 12.1964C3.6315 10.7517 3.6315 9.24827 3.97037 7.80362C4.41652 5.90162 5.90162 4.41652 7.80362 3.97037Z" fill="white"/>
  <path d="M13.6486 2.5C13.3128 2.5 13.0405 2.77226 13.0405 3.10811C13.0405 3.44396 13.3128 3.71622 13.6486 3.71622H15.4238L11.597 7.54297C11.3595 7.78046 11.3595 8.16549 11.597 8.40297C11.8345 8.64045 12.2195 8.64045 12.457 8.40297L16.2838 4.57621V6.35135C16.2838 6.6872 16.556 6.95946 16.8919 6.95946C17.2277 6.95946 17.5 6.6872 17.5 6.35135V3.10811C17.5 2.77226 17.2277 2.5 16.8919 2.5H13.6486Z" fill="white"/>
</svg>