<svg xmlns="http://www.w3.org/2000/svg" width="22" height="22" viewBox="0 0 22 22" fill="none">
  <path d="M20 9C20 9.55229 20.4477 10 21 10C21.5523 10 22 9.55229 22 9H20ZM20.4142 4.7055L21.1312 4.00844L21.1312 4.00844L20.4142 4.7055ZM13.1715 3.68834L13.619 2.79407L13.619 2.79406L13.1715 3.68834ZM9.8399 2.02114L10.2874 1.12686L10.2874 1.12686L9.8399 2.02114ZM7.01238 1.00118L7.04501 2.00065H7.04501L7.01238 1.00118ZM4.25345 2.20351L3.74926 1.33992V1.33992L4.25345 2.20351ZM3.02558 2.92037L3.52976 3.78397L3.52977 3.78396L3.02558 2.92037ZM1.27164 4.26564L0.401399 3.77301L0.401386 3.77304L1.27164 4.26564ZM1.34226 17.4467L0.561694 18.0718L0.561806 18.0719L1.34226 17.4467ZM2.242 17.9856L2.06515 18.9698L2.06529 18.9699L2.242 17.9856ZM4.71987 16.9437L4.21572 16.0801L4.21565 16.0801L4.71987 16.9437ZM7.50487 16.0394L7.36868 17.0301L7.36879 17.0301L7.50487 16.0394ZM9.55252 18.0081C10.0464 18.2552 10.6472 18.0552 10.8943 17.5613C11.1414 17.0674 10.9414 16.4666 10.4475 16.2195L9.55252 18.0081ZM15 4C15 3.44772 14.5523 3 14 3C13.4477 3 13 3.44772 13 4H15ZM13 8.5C13 9.05229 13.4477 9.5 14 9.5C14.5523 9.5 15 9.05229 15 8.5H13ZM17.3083 20.6835L17.9918 21.4135L17.9919 21.4134L17.3083 20.6835ZM15.6919 20.6835L15.0062 21.4114L15.0084 21.4135L15.6919 20.6835ZM12.3431 13.6898L11.4237 13.2965L11.4237 13.2965L12.3431 13.6898ZM20.6571 13.6898L21.5765 13.2965L21.5765 13.2965L20.6571 13.6898ZM16.5 14.5C15.9477 14.5 15.5 14.9477 15.5 15.5C15.5 16.0523 15.9477 16.5 16.5 16.5V14.5ZM16.509 16.5C17.0613 16.5 17.509 16.0523 17.509 15.5C17.509 14.9477 17.0613 14.5 16.509 14.5V16.5ZM22 9V8.21749H20V9H22ZM22 8.21749C22 7.27518 22.002 6.47062 21.9183 5.8305C21.8313 5.16443 21.6358 4.52748 21.1312 4.00844L19.6972 5.40256C19.7784 5.48609 19.8758 5.63532 19.9352 6.08971C19.998 6.57003 20 7.22018 20 8.21749H22ZM21.1312 4.00844C20.6228 3.48547 19.9923 3.27907 19.3315 3.18769C18.7025 3.1007 17.9137 3.10294 17 3.10294V5.10294C17.9719 5.10294 18.5973 5.10519 19.0575 5.16883C19.486 5.22809 19.6198 5.32297 19.6972 5.40257L21.1312 4.00844ZM17 3.10294H14.9214V5.10294H17V3.10294ZM14.9214 3.10294C14.4184 3.10294 14.3225 3.09638 14.2423 3.07738C14.1614 3.05823 14.0712 3.02037 13.619 2.79407L12.724 4.58261C13.0967 4.76913 13.4227 4.93857 13.7812 5.02351C14.1404 5.10861 14.507 5.10294 14.9214 5.10294V3.10294ZM13.619 2.79406L10.2874 1.12686L9.39239 2.91542L12.724 4.58262L13.619 2.79406ZM10.2874 1.12686C9.60837 0.787062 9.03846 0.50074 8.54432 0.308862C8.03088 0.109494 7.53175 -0.0163094 6.97975 0.00171232L7.04501 2.00065C7.23395 1.99448 7.45305 2.03061 7.82037 2.17324C8.20699 2.32337 8.68037 2.55912 9.39239 2.91542L10.2874 1.12686ZM6.97975 0.00171232C6.42786 0.0197301 5.93779 0.177768 5.43805 0.410053C4.95694 0.633676 4.40604 0.956474 3.74926 1.33992L4.75764 3.0671C5.44618 2.66512 5.90427 2.39884 6.28106 2.22371C6.63921 2.05723 6.85595 2.00682 7.04501 2.00065L6.97975 0.00171232ZM3.74926 1.33992L2.52139 2.05678L3.52977 3.78396L4.75764 3.0671L3.74926 1.33992ZM2.5214 2.05677C2.04434 2.33529 1.62289 2.58 1.29202 2.82045C0.942385 3.07455 0.631548 3.36645 0.401399 3.77301L2.14188 4.75827C2.18338 4.68495 2.25542 4.59268 2.4678 4.43834C2.69894 4.27036 3.01863 4.08237 3.52976 3.78397L2.5214 2.05677ZM0.401386 3.77304C0.172087 4.17812 0.0802234 4.59585 0.0385705 5.02788C-0.00107098 5.43904 0 5.93338 0 6.49873H2C2 5.89528 2.00107 5.51302 2.02934 5.21981C2.0556 4.94747 2.09955 4.83305 2.14189 4.75824L0.401386 3.77304ZM0 6.49873V14.7157H2V6.49873H0ZM0 14.7157C0 15.4624 -0.00114429 16.0965 0.0475327 16.5942C0.0956581 17.0861 0.204704 17.626 0.561694 18.0718L2.12283 16.8216C2.13756 16.84 2.07547 16.7822 2.03803 16.3995C2.00114 16.0224 2 15.5047 2 14.7157H0ZM0.561806 18.0719C0.937975 18.5415 1.47001 18.8629 2.06515 18.9698L2.41885 17.0014C2.30831 16.9815 2.20204 16.9205 2.12271 16.8215L0.561806 18.0719ZM2.06529 18.9699C2.6363 19.0724 3.1625 18.8968 3.60657 18.6951C4.05512 18.4912 4.59404 18.1751 5.22409 17.8073L4.21565 16.0801C3.54731 16.4704 3.11242 16.7228 2.77921 16.8742C2.4415 17.0277 2.37796 16.994 2.41871 17.0013L2.06529 18.9699ZM5.22402 17.8073C6.18972 17.2436 6.72113 16.9411 7.36868 17.0301L7.64106 15.0487C6.17909 14.8477 5.0134 15.6144 4.21572 16.0801L5.22402 17.8073ZM7.36879 17.0301C7.65471 17.0694 7.96875 17.1854 8.34607 17.3711C8.53269 17.463 8.72033 17.5643 8.92349 17.6748C9.12066 17.782 9.33657 17.9 9.55252 18.0081L10.4475 16.2195C10.2684 16.1299 10.0854 16.03 9.87879 15.9177C9.67815 15.8086 9.4571 15.6888 9.22917 15.5767C8.77738 15.3543 8.23885 15.1308 7.64095 15.0487L7.36879 17.0301ZM6 1V16H8V1H6ZM13 4V8.5H15V4H13ZM16.6248 19.9535C16.5964 19.9801 16.5522 20 16.5001 20V22C17.0512 22 17.5866 21.7929 17.9918 21.4135L16.6248 19.9535ZM16.5001 20C16.448 20 16.4038 19.9801 16.3754 19.9535L15.0084 21.4135C15.4136 21.7929 15.949 22 16.5001 22V20ZM16.3776 19.9556C15.3231 18.9622 14.2887 18.0814 13.6203 17.0711C13.0027 16.1376 12.7793 15.2129 13.2625 14.0831L11.4237 13.2965C10.6093 15.2004 11.0675 16.8373 11.9523 18.1746C12.7863 19.4351 14.0751 20.5343 15.0062 21.4114L16.3776 19.9556ZM13.2625 14.0831C13.7981 12.831 15.1068 12 16.5001 12V10C14.351 10 12.2913 11.2682 11.4237 13.2965L13.2625 14.0831ZM16.5001 12C17.8934 12 19.2021 12.831 19.7377 14.0831L21.5765 13.2965C20.7089 11.2682 18.6492 10 16.5001 10V12ZM19.7377 14.0831C20.2203 15.2113 19.9978 16.1379 19.3806 17.0729C18.7138 18.0829 17.6789 18.9664 16.6247 19.9536L17.9919 21.4134C18.9282 20.5365 20.2157 19.4381 21.0497 18.1747C21.9333 16.8363 22.3899 15.1981 21.5765 13.2965L19.7377 14.0831ZM16.5 16.5H16.509V14.5H16.5V16.5Z" fill="#080930"/>
</svg>