<svg width="20" height="20" viewBox="0 0 20 20" fill="none" xmlns="http://www.w3.org/2000/svg">
<path d="M15.3003 15C14.1957 15 13.3003 15.8954 13.3003 17C13.3003 18.1046 14.1957 19 15.3003 19C16.4049 19 17.3003 18.1046 17.3003 17C17.3003 15.8954 16.4049 15 15.3003 15ZM15.3003 15H7.59424C7.13318 15 6.90222 15 6.7124 14.918C6.54495 14.8456 6.39968 14.7291 6.29383 14.5805C6.1752 14.414 6.12748 14.1913 6.03304 13.7505L3.57178 2.26465C3.47513 1.81363 3.42616 1.58838 3.30615 1.41992C3.20031 1.27135 3.05506 1.15441 2.88761 1.08205C2.69775 1 2.46808 1 2.00683 1H1.30029M4.30029 4H17.1735C17.8953 4 18.2558 4 18.4981 4.15036C18.7103 4.28206 18.8656 4.48862 18.9333 4.729C19.0107 5.00343 18.9113 5.34996 18.7113 6.04346L17.3267 10.8435C17.2071 11.2581 17.1472 11.465 17.0259 11.6189C16.9188 11.7547 16.7775 11.861 16.6173 11.9263C16.4364 12 16.2214 12 15.7924 12H6.03076M6.30029 19C5.19572 19 4.30029 18.1046 4.30029 17C4.30029 15.8954 5.19572 15 6.30029 15C7.40486 15 8.30029 15.8954 8.30029 17C8.30029 18.1046 7.40486 19 6.30029 19Z" stroke="#F7F8F8" stroke-width="2" stroke-linecap="round" stroke-linejoin="round"/>
</svg>
