<svg width="21" height="14" viewBox="0 0 21 14" fill="none" xmlns="http://www.w3.org/2000/svg">
<path d="M2.1869 8.77881C3.96633 10.5478 7.06963 12.9999 10.6003 12.9999C14.1309 12.9999 17.2336 10.5478 19.0131 8.77881C19.4824 8.31226 19.7178 8.07819 19.8672 7.62012C19.9739 7.29328 19.9739 6.70674 19.8672 6.3799C19.7178 5.92181 19.4824 5.6877 19.0131 5.22111C17.2336 3.45208 14.1309 1 10.6003 1C7.06963 1 3.96633 3.45208 2.1869 5.22111C1.71724 5.68802 1.48238 5.92165 1.33289 6.3799C1.22628 6.70673 1.22627 7.29328 1.33289 7.62012C1.48238 8.07837 1.71723 8.31189 2.1869 8.77881Z" stroke="#4045E1" stroke-width="2" stroke-linecap="round" stroke-linejoin="round"/>
<path d="M8.6001 7C8.6001 8.10457 9.49553 9 10.6001 9C11.7047 9 12.6001 8.10457 12.6001 7C12.6001 5.89543 11.7047 5 10.6001 5C9.49553 5 8.6001 5.89543 8.6001 7Z" stroke="#4045E1" stroke-width="2" stroke-linecap="round" stroke-linejoin="round"/>
</svg>
