<svg xmlns="http://www.w3.org/2000/svg" width="16" height="16" viewBox="0 0 16 16" fill="none">
  <path d="M5.49402 0.439317C3.50608 1.10681 1.81046 2.5671 0.869089 4.40833C0.540103 5.04457 0.302289 5.72081 0.160749 6.41987C-0.200116 8.15797 0.0510867 10.0083 0.869089 11.5939C1.39923 12.6285 2.1624 13.547 3.0856 14.2638C3.95843 14.9448 4.97281 15.4466 6.05157 15.7288C7.40896 16.0872 8.85752 16.0782 10.2283 15.7735C11.4668 15.4957 12.6367 14.9135 13.5688 14.0713C14.5558 13.1798 15.2597 12.0107 15.6346 10.752C16.0413 9.3767 16.0962 7.91172 15.8402 6.50518C13.281 6.50518 10.7218 6.50518 8.1581 6.50518C8.1581 7.54454 8.1581 8.58827 8.1581 9.62764C9.63886 9.62764 11.1241 9.62764 12.6045 9.62764C12.4308 10.6267 11.8276 11.536 10.9685 12.1004C10.4291 12.4542 9.81228 12.6873 9.17248 12.7948C8.52821 12.9023 7.86546 12.9157 7.22566 12.7904C6.57215 12.6651 5.95052 12.396 5.40699 12.0198C4.53862 11.4239 3.87619 10.5461 3.53795 9.56482C3.1908 8.56577 3.18602 7.45048 3.53795 6.45143C3.78023 5.748 4.187 5.09394 4.7216 4.56551C5.37957 3.9024 6.23424 3.43209 7.15744 3.23959C7.94802 3.07397 8.77973 3.10522 9.55215 3.33365C10.2101 3.53084 10.8136 3.88021 11.3115 4.34614C11.8142 3.85771 12.3122 3.36522 12.8149 2.87679C13.0754 2.61241 13.3543 2.36148 13.61 2.08836C12.8513 1.39837 11.9558 0.843062 10.9822 0.493691C9.23655 -0.147551 7.25785 -0.160988 5.49402 0.439317Z" fill="white"/>
  <path d="M5.49402 0.439317C7.25785 -0.160988 9.23687 -0.147551 10.9915 0.488691C11.9647 0.838062 12.856 1.39368 13.6192 2.08336C13.3632 2.3521 13.0891 2.60741 12.8242 2.87179C12.3214 3.36022 11.8235 3.85271 11.3208 4.34114C10.8225 3.87521 10.2194 3.52146 9.56139 3.32865C8.78898 3.10022 7.95727 3.06897 7.16668 3.23459C6.24348 3.42709 5.38914 3.90208 4.73085 4.56051C4.19625 5.08926 3.78948 5.74331 3.5472 6.44643C2.6562 5.76987 1.76487 5.08894 0.87387 4.4127C1.81046 2.5671 3.50608 1.10681 5.49402 0.439317Z" fill="#E94435"/>
  <path d="M0.160749 6.41987C0.302289 5.72112 0.544566 5.04457 0.869089 4.40833C1.76009 5.08488 2.65141 5.76581 3.54242 6.44205C3.19048 7.4411 3.19526 8.5564 3.54242 9.55545C2.65141 10.232 1.76009 10.9129 0.869089 11.5892C0.0510867 10.0126 -0.200116 8.15797 0.160749 6.41987Z" fill="#F8BB15"/>
  <path d="M8.16257 6.50049C10.7218 6.50049 13.281 6.50049 15.8446 6.50049C16.1006 7.90703 16.0458 9.37201 15.639 10.7473C15.2645 12.006 14.5606 13.1798 13.5733 14.0666C12.7097 13.4082 11.8413 12.7495 10.9822 12.091C11.8413 11.531 12.4445 10.6173 12.6182 9.61826C11.1375 9.61826 9.65225 9.61826 8.17181 9.61826C8.1581 8.58359 8.16257 7.54423 8.16257 6.50049Z" fill="#547DBE"/>
  <path d="M0.869089 11.5939C1.76009 10.9173 2.65141 10.2364 3.54242 9.56014C3.88065 10.5457 4.54308 11.4192 5.41145 12.0151C5.9553 12.3913 6.57661 12.6557 7.23012 12.7857C7.86992 12.911 8.53714 12.8976 9.17694 12.7901C9.81674 12.6826 10.4336 12.4498 10.973 12.0957C11.8366 12.7542 12.7049 13.4129 13.5641 14.0713C12.6319 14.9179 11.462 15.496 10.2235 15.7735C8.8572 16.0782 7.40832 16.0869 6.04679 15.7288C4.96834 15.4466 3.95365 14.9448 3.08082 14.2638C2.1624 13.5426 1.39923 12.6242 0.869089 11.5939Z" fill="#34A751"/>
</svg>