<svg width="19" height="18" viewBox="0 0 19 18" fill="none" xmlns="http://www.w3.org/2000/svg">
<path d="M1.2002 17.0001H17.2002M1.2002 17.0001V13.0001L9.2002 5.00012M1.2002 17.0001L5.2002 17.0001L13.2002 9.0001M9.2002 5.00012L12.0688 2.13146L12.0705 2.12976C12.4654 1.73488 12.6632 1.53709 12.8912 1.46301C13.0921 1.39775 13.3084 1.39775 13.5093 1.46301C13.7371 1.53704 13.9347 1.7346 14.329 2.12892L16.0688 3.86872C16.4648 4.26474 16.6629 4.46284 16.7371 4.69117C16.8024 4.89201 16.8023 5.10835 16.7371 5.3092C16.6629 5.53736 16.4651 5.73516 16.0697 6.13061L16.0688 6.13146L13.2002 9.0001M9.2002 5.00012L13.2002 9.0001" stroke="#F7F8F8" stroke-width="2" stroke-linecap="round" stroke-linejoin="round"/>
</svg>
