<svg width="29" height="34" viewBox="0 0 29 34" fill="none" xmlns="http://www.w3.org/2000/svg">
<g clip-path="url(#clip0_445_6253)">
<g opacity="0.15">
<path opacity="0.15" d="M28.2863 31.225C28.2863 31.8283 28.0466 32.4069 27.62 32.8336C27.1934 33.2602 26.6147 33.4999 26.0114 33.4999H7.81203C7.20868 33.4999 6.63005 33.2602 6.20342 32.8336C5.77679 32.4069 5.53711 31.8283 5.53711 31.225V8.02077C5.53711 7.41742 5.77679 6.83879 6.20342 6.41216C6.63005 5.98553 7.20868 5.74585 7.81203 5.74585H15.4785C16.9139 5.81621 18.2826 6.373 19.3595 7.32464L26.6939 14.6544C27.658 15.7281 28.2263 17.0991 28.3045 18.54L28.2863 31.225Z" fill="#E6FAEE"/>
</g>
<path d="M21.9164 30.529H3.71707C2.81477 30.5278 1.94958 30.1697 1.31028 29.533C0.670986 28.8963 0.309493 28.0325 0.304688 27.1302L0.304688 3.91238C0.305891 3.00773 0.665796 2.14048 1.30548 1.50079C1.94516 0.861108 2.81242 0.501204 3.71707 0.5L11.3835 0.5C13.1261 0.573851 14.7862 1.26209 16.0699 2.44278L23.386 9.75893C24.5664 11.0428 25.2546 12.7028 25.3288 14.4453V27.1302C25.324 28.0325 24.9625 28.8963 24.3232 29.533C23.6839 30.1697 22.8187 30.5278 21.9164 30.529ZM2.57961 2.77492V28.254H23.0539V14.4453C22.9741 13.3076 22.527 12.2267 21.7799 11.365L14.4638 4.04888C13.6023 3.3015 12.5213 2.85438 11.3835 2.77492H2.57961Z" fill="#EDEEFC"/>
<path d="M24.1913 12.1703H13.6584V1.63745M18.3174 16.843H7.31592M18.3174 20.4146H7.31592M18.3174 23.9908H7.31592" stroke="#EDEEFC" stroke-width="0.909968" stroke-miterlimit="10"/>
</g>
<defs>
<clipPath id="clip0_445_6253">
<rect width="27.9815" height="33" fill="white" transform="translate(0.303711 0.5)"/>
</clipPath>
</defs>
</svg>
