<svg xmlns="http://www.w3.org/2000/svg" width="41" height="40" viewBox="0 0 41 40" fill="none">
  <path d="M5.5 30.722C5.5 27.385 7.92475 24.5426 11.2201 24.0167L11.5169 23.9693C14.1556 23.5482 16.8444 23.5482 19.4831 23.9693L19.7799 24.0167C23.0752 24.5426 25.5 27.385 25.5 30.722C25.5 32.1644 24.3307 33.3337 22.8884 33.3337H8.11161C6.66926 33.3337 5.5 32.1644 5.5 30.722Z" stroke="#4045E1" stroke-width="2.5"/>
  <path d="M21.3333 12.5003C21.3333 15.722 18.7217 18.3337 15.5 18.3337C12.2783 18.3337 9.66667 15.722 9.66667 12.5003C9.66667 9.27866 12.2783 6.66699 15.5 6.66699C18.7217 6.66699 21.3333 9.27866 21.3333 12.5003Z" stroke="#4045E1" stroke-width="2.5"/>
  <path d="M25.5 18.3337C28.7217 18.3337 31.3333 15.722 31.3333 12.5003C31.3333 9.27866 28.7217 6.66699 25.5 6.66699M29.4831 33.3337H32.8884C34.3307 33.3337 35.5 32.1644 35.5 30.722C35.5 27.385 33.0752 24.5426 29.7799 24.0167V24.0167C29.5824 23.9852 29.3822 23.9693 29.1822 23.9693C28.6492 23.9693 28.4837 23.9693 27.5686 23.9693" stroke="#4045E1" stroke-width="2.5" stroke-linecap="round"/>
</svg>