<svg xmlns="http://www.w3.org/2000/svg" width="18" height="20" viewBox="0 0 18 20" fill="none">
  <path d="M1.6531 15.0263L0.958388 15.3089L0.958389 15.3089L1.6531 15.0263ZM1.30609 9.39712L2.03006 9.59299L1.30609 9.39712ZM16.6939 9.39711L15.9699 9.59298L16.6939 9.39711ZM16.3469 15.0263L17.0416 15.3089V15.3089L16.3469 15.0263ZM11.0365 18.8418L10.9206 18.1008L11.0365 18.8418ZM6.96352 18.8418L7.07941 18.1008L6.96352 18.8418ZM5.65619 5.60213L5.50672 4.86718L5.65619 5.60213ZM12.3438 5.60213L12.4933 4.86718L12.4933 4.86718L12.3438 5.60213ZM6.21479 18.7247L6.0989 19.4657L6.21479 18.7247ZM1.74598 15.2546L2.44069 14.972L2.44069 14.972L1.74598 15.2546ZM11.7852 18.7247L11.9011 19.4657L11.7852 18.7247ZM16.254 15.2546L15.5593 14.972V14.972L16.254 15.2546ZM12.6199 5.65829L12.4705 6.39324L12.4705 6.39324L12.6199 5.65829ZM5.38009 5.65829L5.52956 6.39324L5.38009 5.65829ZM3.89397 5.43059C3.89397 5.84481 4.22976 6.18059 4.64397 6.18059C5.05819 6.18059 5.39397 5.84481 5.39397 5.43059H3.89397ZM4.64397 5.12771H3.89397H4.64397ZM13.356 5.12772H12.606H13.356ZM12.606 5.4306C12.606 5.84481 12.9418 6.1806 13.356 6.1806C13.7702 6.1806 14.106 5.84481 14.106 5.4306H12.606ZM7.8517 1.14126L7.6697 0.413679L7.6697 0.413679L7.8517 1.14126ZM10.1482 1.14126L10.3302 0.41368L10.1482 1.14126ZM9.75 11.5C9.75 11.0858 9.41421 10.75 9 10.75C8.58579 10.75 8.25 11.0858 8.25 11.5H9.75ZM8.25 13.5C8.25 13.9142 8.58579 14.25 9 14.25C9.41421 14.25 9.75 13.9142 9.75 13.5H8.25ZM5.52956 6.39324L5.80567 6.33709L5.50672 4.86718L5.23062 4.92333L5.52956 6.39324ZM12.1943 6.33709L12.4705 6.39324L12.7694 4.92333L12.4933 4.86718L12.1943 6.33709ZM11.6693 17.9837L10.9206 18.1008L11.1523 19.5828L11.9011 19.4657L11.6693 17.9837ZM7.07941 18.1008L6.33068 17.9837L6.0989 19.4657L6.84762 19.5828L7.07941 18.1008ZM15.6522 14.7437L15.5593 14.972L16.9487 15.5373L17.0416 15.3089L15.6522 14.7437ZM2.44069 14.972L2.3478 14.7437L0.958389 15.3089L1.05128 15.5373L2.44069 14.972ZM2.34781 14.7437C1.67941 13.1008 1.56858 11.2988 2.03006 9.59299L0.58212 9.20125C0.0346517 11.2248 0.166701 13.363 0.958388 15.3089L2.34781 14.7437ZM15.9699 9.59298C16.4314 11.2987 16.3206 13.1008 15.6522 14.7437L17.0416 15.3089C17.8333 13.363 17.9654 11.2248 17.4179 9.20125L15.9699 9.59298ZM10.9206 18.1008C9.64859 18.2997 8.35138 18.2997 7.07941 18.1008L6.84762 19.5828C8.27318 19.8057 9.72678 19.8057 11.1523 19.5828L10.9206 18.1008ZM5.80567 6.33709C7.9118 5.90875 10.0882 5.90875 12.1943 6.33709L12.4933 4.86718C10.1899 4.39872 7.81013 4.39872 5.50672 4.86718L5.80567 6.33709ZM6.33068 17.9837C4.55628 17.7062 3.08366 16.5524 2.44069 14.972L1.05128 15.5373C1.90076 17.6253 3.82633 19.1102 6.0989 19.4657L6.33068 17.9837ZM11.9011 19.4657C14.1736 19.1102 16.0992 17.6253 16.9487 15.5373L15.5593 14.972C14.9163 16.5524 13.4437 17.7062 11.6693 17.9837L11.9011 19.4657ZM12.4705 6.39324C14.1912 6.7432 15.5368 7.99212 15.9699 9.59298L17.4179 9.20125C16.8298 7.02766 15.0205 5.38115 12.7694 4.92333L12.4705 6.39324ZM5.23062 4.92333C2.97952 5.38115 1.17018 7.02766 0.58212 9.20125L2.03006 9.59299C2.46317 7.99212 3.80883 6.7432 5.52956 6.39324L5.23062 4.92333ZM5.39397 5.43059V5.12771H3.89397V5.43059H5.39397ZM12.606 5.12772V5.4306H14.106V5.12772H12.606ZM8.03371 1.86884C8.66717 1.71039 9.33277 1.71039 9.96623 1.86884L10.3302 0.41368C9.45779 0.19544 8.54215 0.19544 7.6697 0.413679L8.03371 1.86884ZM14.106 5.12772C14.106 2.88982 12.535 0.965185 10.3302 0.41368L9.96623 1.86884C11.5399 2.2625 12.606 3.61508 12.606 5.12772H14.106ZM5.39397 5.12771C5.39397 3.61508 6.46002 2.2625 8.03371 1.86884L7.6697 0.413679C5.46497 0.965185 3.89397 2.88982 3.89397 5.12771H5.39397ZM8.25 11.5V13.5H9.75V11.5H8.25Z" fill="#8E8F98"/>
</svg>